<svg width="200" height="300" viewBox="0 0 200 300" fill="none" xmlns="http://www.w3.org/2000/svg">
<path d="M25 250H12C5.37258 250 0 244.627 0 238V62C0 55.3726 5.37258 50 12 50H25V250Z" fill="#000000"/>
<path d="M57 275H46C39.3726 275 34 269.627 34 263V37C34 30.3726 39.3726 25 46 25H57V275Z" fill="#000000"/>
<path d="M122 0C128.627 0 134 5.37258 134 12V16H112C100.402 16 91 25.402 91 37V263C91 274.598 100.402 284 112 284H134V288C134 294.627 128.627 300 122 300H78C71.3726 300 66 294.627 66 288V12C66 5.37259 71.3726 0 78 0H122Z" fill="#000000"/>
<path d="M134 62C134 55.3726 139.373 50 146 50H188C194.627 50 200 55.3726 200 62V238C200 244.627 194.627 250 188 250H146C139.373 250 134 244.627 134 238V62Z" fill="#22C55E"/>
<path d="M154 25C160.627 25 166 30.3726 166 37V41H146C134.402 41 125 50.402 125 62V238C125 249.598 134.402 259 146 259H166V263C166 269.627 160.627 275 154 275H112C105.373 275 100 269.627 100 263V37C100 30.3726 105.373 25 112 25H154ZM134.016 238.617C134.02 238.713 134.026 238.809 134.033 238.904C134.026 238.807 134.021 238.71 134.016 238.612V238.617Z" fill="#000000"/>
</svg>
